<?xml version="1.0" encoding="iso-8859-1"?>
<!-- Generator: Adobe Illustrator 19.0.0, SVG Export Plug-In . SVG Version: 6.00 Build 0)  -->
<svg version="1.1" id="Layer_1" xmlns="http://www.w3.org/2000/svg" xmlns:xlink="http://www.w3.org/1999/xlink" x="0px" y="0px"
	 viewBox="0 0 512.001 512.001" style="enable-background:new 0 0 512.001 512.001;" xml:space="preserve">
<g>
	<path style="fill:#9AD14B;" d="M299.489,430.149V512h-86.963v-81.851C241.171,436.25,270.83,436.25,299.489,430.149z"/>
	<path style="fill:#9AD14B;" d="M362.788,61.849c-14.757,12.254-36.854,38.646-51.322,92.787c0,0-18.684-85.343-55.459-104.633
		c-36.788,19.29-55.472,104.633-55.472,104.633c-6.417-24.02-14.336-42.586-22.452-56.869
		c-10.172-17.92-20.647-29.106-28.856-35.919c3.742-4.625,7.603-9.065,11.556-13.295C188.202,19.316,220.905,0,256.007,0
		c9.764,0,19.33,1.489,28.645,4.282c24.218,7.221,46.776,23.164,66.58,44.272C355.185,52.784,359.046,57.225,362.788,61.849z"/>
	<path style="fill:#9AD14B;" d="M406.348,152.028c-0.856,4.73-2.108,9.487-3.821,14.244c-4.559,2.411-9.329,5.218-14.191,8.472
		c-21.609,14.428-44.892,37.618-58.727,74.301c-0.237,0.158-0.474,0.329-0.711,0.488c-2.609-8.209-27.143-81.864-72.891-99.257
		c-25.47,9.685-44.365,36.788-56.553,60.334c-9.724,18.763-15.192,35.273-16.352,38.923c-0.237-0.158-0.474-0.329-0.712-0.488
		c-7.392-19.619-17.498-35.391-28.606-48.014c-9.645-10.976-20.054-19.567-30.108-26.287c-4.862-3.255-9.632-6.061-14.191-8.472
		c-1.713-4.757-2.965-9.513-3.821-14.244c-9.461-51.835,28.118-99.955,28.118-99.955s6.325,2.187,15.443,9.777
		c8.209,6.812,18.684,17.999,28.856,35.919c8.117,14.283,16.036,32.848,22.452,56.869c0,0,18.684-85.343,55.472-104.633
		c36.775,19.29,55.459,104.633,55.459,104.633c14.468-54.141,36.564-80.533,51.322-92.787c9.118-7.59,15.443-9.777,15.443-9.777
		S415.809,100.192,406.348,152.028z"/>
	<path style="fill:#9AD14B;" d="M431.014,219.649c-0.264,1.015-0.54,2.029-0.83,3.057c0,0,0,0,0,0.013
		c-2.306,8.182-5.152,16.694-8.67,25.312c-28.105,12.056-66.171,36.472-85.883,83.999c0,0-26.84-78.952-79.624-96.793
		c-21.029,7.102-37.935,23.902-50.65,41.545c-19.264,26.656-28.975,55.248-28.975,55.248c-5.152-12.425-11.556-23.256-18.71-32.717
		c-20.212-26.735-46.42-42.388-67.186-51.295c-3.505-8.604-6.351-17.103-8.657-25.272v-0.013c-0.29-1.028-0.58-2.055-0.843-3.083
		c-10.08-37.539-8.841-67.397-8.841-67.397s16.47,2.951,37.342,14.02c4.559,2.411,9.329,5.218,14.191,8.472
		c10.053,6.72,20.463,15.311,30.108,26.287c11.108,12.623,21.214,28.395,28.606,48.014c0.171,0.408,0.316,0.83,0.474,1.239
		c0,0,0.079-0.264,0.237-0.751c0.87-2.754,4.203-12.847,9.974-25.707c11.45-25.536,32.493-61.981,62.93-73.55
		c45.748,17.393,70.282,91.048,72.891,99.257c0.158,0.488,0.237,0.751,0.237,0.751c0.158-0.408,0.303-0.83,0.474-1.239
		c13.835-36.683,37.118-59.873,58.727-74.301c4.862-3.255,9.632-6.061,14.191-8.472c20.858-11.068,37.328-14.02,37.328-14.02
		S441.094,182.123,431.014,219.649z"/>
	<path style="fill:#9AD14B;" d="M342.259,423.104c-13.809,6.272-28.158,10.963-42.77,14.072
		c-14.099,2.991-28.421,4.519-42.757,4.572c-9.171,0.026-18.341-0.54-27.446-1.726c-5.613-0.712-11.213-1.66-16.76-2.846
		c-14.613-3.11-28.961-7.8-42.77-14.072C49.719,368.514,55.82,237.16,55.82,237.16s14.863,2.372,34.667,10.857
		c27.657,11.859,64.972,35.695,84.934,81.746c0.329,0.751,0.646,1.502,0.962,2.266c0,0,10.62-31.254,31.649-58.885
		c12.386-16.273,28.395-31.294,47.975-37.908c52.784,17.841,79.624,96.793,79.624,96.793c19.712-47.527,57.778-71.943,85.883-83.999
		c19.804-8.499,34.667-10.87,34.667-10.87S462.295,368.514,342.259,423.104z"/>
</g>
<g>
	<path style="fill:none;stroke:#333333;stroke-width:15;stroke-linejoin:round;stroke-miterlimit:10;" d="M407.811,138.575
		c0,0,0,0.013,0,0.026"/>
	
		<line style="fill:none;stroke:#333333;stroke-width:15;stroke-linejoin:round;stroke-miterlimit:10;" x1="104.199" y1="138.562" x2="104.199" y2="138.549"/>
</g>
<path style="fill:#90BC42;" d="M421.514,223.43c-28.105,12.056-66.171,36.472-85.883,83.999c0,0-26.84-78.952-79.624-96.793
	c-19.58,6.614-35.589,21.635-47.975,37.908c-21.029,27.631-31.649,58.885-31.649,58.885c-5.26-12.685-11.832-23.711-19.169-33.307
	c1.079-22.874,4.766-50.505,6.087-61.089c7.312,10.254,13.875,22.172,19.09,36.012c0.237,0.158,0.474,0.329,0.712,0.488
	c1.16-3.65,6.628-20.16,16.352-38.923c12.188-23.546,31.083-50.65,56.553-60.334c45.748,17.393,70.282,91.048,72.891,99.257
	c0.237-0.158,0.474-0.329,0.712-0.488c13.835-36.683,37.118-59.873,58.727-74.301c4.862-3.255,9.632-6.061,14.191-8.472
	c1.713-4.757,2.965-9.513,3.821-14.244c-1.252,0.606-2.53,1.265-3.821,1.95c-4.559,2.411-9.329,5.218-14.191,8.472
	c-21.609,14.428-44.892,37.618-58.727,74.301c-0.171,0.408-0.316,0.83-0.474,1.239c0,0-0.079-0.264-0.237-0.751
	c-2.609-8.209-27.143-81.864-72.891-99.257c-30.437,11.569-51.48,48.014-62.93,73.55c-5.771,12.86-9.105,22.953-9.974,25.707
	c-0.158,0.488-0.237,0.751-0.237,0.751c-0.158-0.408-0.303-0.83-0.474-1.239c-7.171-19.03-16.889-34.422-27.598-46.85
	c4.301-34.838,18.307-56.991,29.569-80.074c5.859,12.271,11.426,27.046,16.174,44.81c0,0,18.684-85.343,55.472-104.633
	c36.775,19.29,55.459,104.633,55.459,104.633c14.468-54.141,36.564-80.533,51.322-92.787c-3.742-4.625-7.603-9.065-11.556-13.295
	c-13.269,15.047-28.737,40.201-39.766,81.482c0,0-18.684-85.343-55.459-104.633c-36.788,19.29-55.472,104.633-55.472,104.633
	c-4.718-17.664-10.252-32.365-16.076-44.595c32.432-57.752,80.983-76.003,100.194-81.159c-9.316-2.793-18.882-4.282-28.645-4.282
	c-35.102,0-67.805,19.316-95.225,48.555c-3.953,4.23-7.814,8.67-11.556,13.295l0,0c-9.118-7.59-15.443-9.777-15.443-9.777
	s-37.579,48.12-28.118,99.955c0.856,4.73,2.108,9.487,3.821,14.244c-20.871-11.068-37.342-14.02-37.342-14.02
	s-1.239,29.857,8.841,67.397c0.264,1.028,0.553,2.055,0.843,3.083v0.013c2.306,8.169,5.152,16.668,8.657,25.272
	c-19.804-8.486-34.667-10.857-34.667-10.857s-6.101,131.354,113.935,185.944c13.809,6.272,28.158,10.963,42.77,14.072v74.824h43.484
	V441.74c-8.93-0.004-17.858-0.561-26.724-1.717c-10.449-7.659-51.347-42.198-48.827-118.414
	c4.535-10.716,12.847-28.15,24.899-44.827c12.715-17.643,29.62-34.443,50.65-41.545c52.784,17.841,79.624,96.793,79.624,96.793
	c19.712-47.527,57.778-71.943,85.883-83.999c3.518-8.617,6.364-17.129,8.67-25.312c0-0.013,0-0.013,0-0.013
	c0.29-1.028,0.567-2.042,0.83-3.057C428.023,220.742,424.835,222.007,421.514,223.43z"/>
<g>
</g>
<g>
</g>
<g>
</g>
<g>
</g>
<g>
</g>
<g>
</g>
<g>
</g>
<g>
</g>
<g>
</g>
<g>
</g>
<g>
</g>
<g>
</g>
<g>
</g>
<g>
</g>
<g>
</g>
</svg>
