<?xml version="1.0" encoding="iso-8859-1"?>
<!-- Generator: Adobe Illustrator 18.0.0, SVG Export Plug-In . SVG Version: 6.00 Build 0)  -->
<!DOCTYPE svg PUBLIC "-//W3C//DTD SVG 1.1//EN" "http://www.w3.org/Graphics/SVG/1.1/DTD/svg11.dtd">
<svg xmlns="http://www.w3.org/2000/svg" xmlns:xlink="http://www.w3.org/1999/xlink" version="1.1" id="Capa_1" x="0px" y="0px" viewBox="0 0 54.688 54.688" style="enable-background:new 0 0 54.688 54.688;" xml:space="preserve" width="512px" height="512px">
<path d="M47.809,39.692c-1.423-1.381-1.457-3.663-0.076-5.087c1.042-1.073,1.604-2.487,1.581-3.982  c-0.023-1.494-0.627-2.891-1.7-3.933c-1.424-1.381-1.458-3.663-0.077-5.087c1.042-1.073,1.604-2.487,1.581-3.982  c-0.023-1.494-0.627-2.891-1.7-3.933c-1.424-1.381-1.458-3.663-0.077-5.087c1.042-1.073,1.604-2.487,1.581-3.982  c-0.023-1.494-0.627-2.891-1.7-3.933l-0.297-0.288L34.9,0.579c-0.575,0.01-1.104,0.328-1.381,0.831  c-0.277,0.505-0.263,1.124,0.038,1.616c0.854,1.398,0.652,3.197-0.492,4.376c-2.148,2.215-2.095,5.767,0.12,7.916  c1.423,1.381,1.457,3.663,0.076,5.087c-1.042,1.073-1.604,2.487-1.581,3.982c0.023,1.494,0.627,2.891,1.7,3.933  c1.424,1.381,1.458,3.663,0.077,5.087c-0.328,0.337-0.589,0.718-0.819,1.115c-0.939-0.958-1.287-2.369-0.81-3.696  c1.044-2.904-0.471-6.117-3.375-7.161c-0.905-0.325-1.629-0.982-2.038-1.851c-0.409-0.869-0.455-1.846-0.13-2.751  c0.506-1.408,0.434-2.928-0.203-4.279c-0.638-1.353-1.764-2.376-3.171-2.882c-1.867-0.671-2.84-2.735-2.169-4.603  c1.043-2.904-0.471-6.116-3.375-7.16L16.978,0L6.103,5.124C5.583,5.369,5.231,5.877,5.186,6.449C5.14,7.023,5.41,7.583,5.887,7.908  c1.354,0.921,1.912,2.644,1.356,4.189c-1.044,2.904,0.471,6.117,3.375,7.161c0.905,0.325,1.629,0.982,2.038,1.851  c0.409,0.869,0.455,1.846,0.13,2.751c-1.043,2.905,0.471,6.117,3.374,7.161c1.867,0.671,2.84,2.735,2.169,4.603  c-1.043,2.904,0.471,6.116,3.374,7.16c1.867,0.671,2.84,2.735,2.169,4.603c-0.506,1.408-0.434,2.928,0.203,4.279  c0.638,1.353,1.764,2.376,3.172,2.882l0.39,0.14l4.852-2.286c0.288,0.714,0.715,1.37,1.284,1.923l0.297,0.288l11.999-0.181  c0.586-0.009,1.106-0.318,1.391-0.83c0.281-0.508,0.27-1.133-0.031-1.632c-0.843-1.396-0.637-3.189,0.501-4.361  C50.078,45.394,50.024,41.842,47.809,39.692z M17.054,2.175c1.627,0.793,2.432,2.707,1.806,4.449  c-1.043,2.903,0.471,6.116,3.375,7.161c1.866,0.671,2.839,2.735,2.168,4.603c-0.506,1.407-0.434,2.927,0.203,4.278  c0.638,1.353,1.764,2.376,3.172,2.882c1.866,0.671,2.839,2.735,2.168,4.603c-0.844,2.349,0.012,4.977,1.999,6.414  c-0.036,0.272-0.072,0.545-0.068,0.825c0.002,0.118,0.03,0.229,0.039,0.346c0.009,0.126,0.025,0.25,0.042,0.375  c0.034,0.233,0.079,0.461,0.142,0.686c0.046,0.171,0.099,0.339,0.161,0.505c0.046,0.12,0.091,0.24,0.145,0.356  c0.116,0.253,0.252,0.497,0.406,0.731c0.045,0.068,0.094,0.132,0.141,0.198c0.187,0.259,0.389,0.509,0.623,0.735  c0.177,0.172,0.333,0.358,0.467,0.554c0.017,0.024,0.027,0.052,0.043,0.077c0.752,1.162,0.77,2.666,0.04,3.844  c-0.008,0.014-0.013,0.029-0.022,0.043c-0.128,0.201-0.278,0.392-0.45,0.569c-0.994,1.024-1.535,2.362-1.564,3.781  c-0.641-0.803-1.398-1.24-1.948-1.555c-0.143-0.082-0.323-0.186-0.438-0.265c0.037-0.178,0.165-0.589,0.606-1.371  c0.042-0.073,0.077-0.151,0.105-0.23c1.137-3.164-0.512-6.663-3.676-7.801c-1.607-0.578-2.445-2.355-1.867-3.963  c1.137-3.163-0.512-6.663-3.676-7.8c-1.607-0.578-2.445-2.355-1.867-3.963c1.137-3.164-0.512-6.664-3.675-7.8  c-1.607-0.578-2.445-2.355-1.867-3.963c0.778-2.164-0.101-5.146-1.527-7.046L17.054,2.175z M27.561,52.513  c-1.627-0.794-2.432-2.708-1.806-4.45c1.043-2.903-0.471-6.116-3.375-7.161c-0.905-0.325-1.629-0.982-2.038-1.851  s-0.455-1.846-0.13-2.751c1.043-2.903-0.471-6.116-3.375-7.161c-1.866-0.67-2.839-2.735-2.168-4.603  c0.506-1.407,0.434-2.927-0.203-4.278c-0.638-1.353-1.764-2.376-3.172-2.882c-0.905-0.325-1.629-0.982-2.038-1.852  c-0.409-0.868-0.455-1.846-0.13-2.751c0.788-2.193,0.134-4.616-1.589-6.114l1.9-0.895c1.106,0.965,1.96,3.492,1.526,4.702  c-1.137,3.164,0.512,6.663,3.676,7.801c1.606,0.577,2.444,2.355,1.866,3.962c-1.137,3.164,0.512,6.664,3.676,7.801  c1.607,0.578,2.445,2.355,1.868,3.962c-1.137,3.164,0.512,6.663,3.676,7.801c1.572,0.565,2.408,2.279,1.903,3.857  c-1.734,3.15-0.847,4.515,1.02,5.587c0.256,0.147,0.483,0.284,0.689,0.439L27.561,52.513z M34.17,51.104l-0.04-0.264  c-0.041-0.274-0.049-0.546-0.03-0.813c0.001-0.017,0.003-0.034,0.004-0.051c0.02-0.24,0.069-0.475,0.136-0.703  c0.012-0.039,0.021-0.078,0.034-0.117c0.068-0.205,0.16-0.401,0.265-0.59c0.025-0.045,0.044-0.094,0.072-0.139  c0.136-0.222,0.293-0.434,0.479-0.625c0.266-0.274,0.498-0.571,0.7-0.885c0.021-0.033,0.033-0.069,0.053-0.102  c0.548-0.894,0.844-1.921,0.827-2.996c-0.016-1.062-0.338-2.067-0.901-2.938c-0.028-0.043-0.045-0.091-0.074-0.134  c-0.211-0.307-0.452-0.596-0.725-0.862c-0.148-0.143-0.274-0.302-0.393-0.464c-0.045-0.062-0.088-0.125-0.128-0.19  c-0.063-0.099-0.118-0.203-0.171-0.308c-0.095-0.191-0.176-0.388-0.235-0.593c-0.009-0.029-0.02-0.058-0.028-0.087  c-0.038-0.146-0.068-0.295-0.088-0.446c-0.001-0.008-0.002-0.016-0.003-0.024c-0.059-0.468-0.027-0.953,0.103-1.426l0.104-0.378  c0.172-0.431,0.429-0.829,0.762-1.173c2.149-2.216,2.095-5.767-0.12-7.915c-0.69-0.67-1.078-1.567-1.093-2.527  c-0.015-0.961,0.347-1.869,1.017-2.56c2.148-2.215,2.096-5.766-0.119-7.915c-1.424-1.382-1.458-3.664-0.077-5.088  c1.623-1.673,2.027-4.15,1.075-6.226l4.283-0.064c0.205,1.2,0.793,2.03,1.209,2.608c0.097,0.133,0.218,0.302,0.29,0.422  c-0.108,0.147-0.393,0.469-1.117,0.999c-0.068,0.049-0.132,0.105-0.191,0.166c-2.341,2.413-2.283,6.281,0.13,8.622  c1.226,1.189,1.255,3.155,0.066,4.38c-2.341,2.412-2.282,6.28,0.131,8.622c1.226,1.189,1.256,3.155,0.066,4.38  c-2.341,2.413-2.283,6.281,0.129,8.622c1.226,1.189,1.255,3.154,0.066,4.38c-1.551,1.598-2.005,4.54-1.565,6.831L34.898,52.6  C34.536,52.164,34.294,51.651,34.17,51.104z M46.494,46.216c-1.621,1.67-2.025,4.151-1.075,6.226l-3.272,0.049  c-0.488-1.391-0.201-3.823,0.646-4.696c2.341-2.413,2.283-6.281-0.13-8.622c-1.225-1.189-1.255-3.154-0.065-4.38  c2.341-2.413,2.283-6.281-0.13-8.622c-1.226-1.189-1.255-3.155-0.067-4.38c2.341-2.413,2.283-6.281-0.13-8.622  c-1.199-1.164-1.254-3.07-0.142-4.299c2.879-2.154,2.635-3.763,1.376-5.51c-0.226-0.313-0.417-0.593-0.548-0.901l3.141-0.047  c0.522,0.629,0.813,1.41,0.825,2.238c0.015,0.961-0.347,1.869-1.017,2.56c-1.042,1.074-1.604,2.488-1.58,3.982  c0.022,1.494,0.626,2.891,1.7,3.933c0.69,0.67,1.078,1.567,1.093,2.527c0.015,0.961-0.347,1.869-1.017,2.56  c-2.149,2.216-2.095,5.767,0.12,7.915c0.69,0.67,1.078,1.567,1.093,2.527c0.015,0.961-0.347,1.869-1.017,2.56  c-2.148,2.215-2.096,5.766,0.119,7.915C47.841,42.51,47.875,44.792,46.494,46.216z" fill="#707070"/>
<g>
</g>
<g>
</g>
<g>
</g>
<g>
</g>
<g>
</g>
<g>
</g>
<g>
</g>
<g>
</g>
<g>
</g>
<g>
</g>
<g>
</g>
<g>
</g>
<g>
</g>
<g>
</g>
<g>
</g>
</svg>
