<?xml version="1.0" encoding="iso-8859-1"?>
<!-- Generator: Adobe Illustrator 18.0.0, SVG Export Plug-In . SVG Version: 6.00 Build 0)  -->
<!DOCTYPE svg PUBLIC "-//W3C//DTD SVG 1.1//EN" "http://www.w3.org/Graphics/SVG/1.1/DTD/svg11.dtd">
<svg version="1.1" id="Capa_1" xmlns="http://www.w3.org/2000/svg" xmlns:xlink="http://www.w3.org/1999/xlink" x="0px" y="0px"
	 viewBox="0 0 58 58" style="enable-background:new 0 0 58 58;" xml:space="preserve">
<g>
	<path d="M40.682,22.297c-0.479,0.274-0.646,0.885-0.372,1.364c0.275,0.48,0.886,0.648,1.364,0.372
		c0.12-0.069,0.272-0.028,0.341,0.093c0.298,0.522,0.782,0.897,1.361,1.056c0.58,0.158,1.187,0.081,1.708-0.218
		c0.119-0.068,0.273-0.026,0.341,0.093c0.415,0.726,1.175,1.133,1.957,1.133c0.378,0,0.762-0.095,1.113-0.296
		c0.479-0.273,0.646-0.885,0.372-1.364c-0.273-0.479-0.883-0.646-1.364-0.372c-0.119,0.068-0.273,0.026-0.341-0.093
		c-0.617-1.077-1.994-1.451-3.07-0.837c-0.075,0.043-0.145,0.036-0.189,0.024c-0.045-0.013-0.108-0.043-0.151-0.118
		c-0.298-0.522-0.782-0.896-1.362-1.055C41.811,21.922,41.205,21.999,40.682,22.297z"/>
	<path d="M23.72,15.96C23.813,15.987,23.908,16,24,16c0.433,0,0.832-0.283,0.959-0.72c0.039-0.133,0.176-0.214,0.31-0.171
		c1.192,0.349,2.442-0.339,2.79-1.529c0.039-0.133,0.175-0.213,0.311-0.171c0.578,0.168,1.185,0.101,1.711-0.187
		c0.527-0.289,0.91-0.766,1.078-1.343c0.155-0.53-0.15-1.086-0.68-1.24c-0.529-0.157-1.084,0.15-1.24,0.68
		c-0.039,0.134-0.177,0.207-0.31,0.17c-1.192-0.351-2.443,0.339-2.79,1.53c-0.039,0.133-0.178,0.209-0.31,0.17
		c-1.19-0.352-2.442,0.339-2.79,1.53C22.885,15.25,23.19,15.806,23.72,15.96z"/>
	<path d="M11.597,32.661c0.492,0.344,1.088,0.473,1.681,0.373c0.136-0.033,0.266,0.067,0.29,0.204
		c0.192,1.09,1.144,1.859,2.215,1.859c0.128,0,0.259-0.011,0.389-0.033c0.544-0.096,0.908-0.613,0.813-1.158
		c-0.095-0.544-0.61-0.9-1.157-0.813c-0.138,0.027-0.266-0.066-0.29-0.202c-0.215-1.221-1.381-2.049-2.606-1.827
		c-0.082,0.01-0.148-0.015-0.186-0.041c-0.039-0.027-0.087-0.077-0.103-0.162c-0.104-0.593-0.432-1.108-0.924-1.453
		c-0.492-0.346-1.089-0.479-1.682-0.373c-0.544,0.096-0.907,0.614-0.811,1.158c0.096,0.544,0.616,0.91,1.159,0.811
		c0.082-0.012,0.148,0.015,0.187,0.041c0.039,0.027,0.087,0.077,0.103,0.162C10.777,31.799,11.105,32.315,11.597,32.661z"/>
	<path d="M18.521,29.96c0.093,0.027,0.188,0.04,0.28,0.04c0.433,0,0.832-0.283,0.959-0.72c0.038-0.133,0.175-0.213,0.31-0.171
		c1.19,0.352,2.443-0.339,2.79-1.529c0.039-0.133,0.175-0.211,0.31-0.171c1.191,0.348,2.442-0.34,2.79-1.529
		c0.155-0.53-0.15-1.086-0.68-1.24c-0.527-0.151-1.085,0.15-1.24,0.68c-0.024,0.083-0.078,0.127-0.12,0.149
		c-0.041,0.022-0.108,0.045-0.19,0.021c-1.192-0.348-2.442,0.34-2.79,1.53c-0.039,0.133-0.18,0.209-0.311,0.17
		c-1.19-0.35-2.442,0.339-2.79,1.53C17.686,29.25,17.99,29.806,18.521,29.96z"/>
	<path d="M45.087,31.023c-1.854-0.168-3.469,0.544-4.108,1.799c-0.411,0.807-0.309,1.719,0.267,2.381
		c0.245,0.281,0.79,0.981,0.575,1.415c-0.205,0.412-1.06,0.756-1.752,0.71c-0.66-0.045-1.139-0.2-1.313-0.426
		c-0.143-0.187-0.161-0.545-0.053-1.097c0.024-0.125,0.136-0.433,0.234-0.704c0.406-1.121,0.866-2.392,0.339-3.31
		c-0.23-0.401-0.62-0.67-1.104-0.759l-0.152-0.024c-0.548-0.075-1.015,0.317-1.089,0.863c-0.059,0.437,0.194,0.848,0.577,1.034
		c-0.051,0.411-0.323,1.161-0.451,1.514c-0.141,0.39-0.263,0.727-0.317,1.003c-0.143,0.732-0.253,1.809,0.431,2.698
		c0.546,0.711,1.476,1.115,2.763,1.203c0.088,0.006,0.177,0.009,0.268,0.009c1.286,0,2.803-0.6,3.411-1.825
		c0.311-0.626,0.613-1.929-0.857-3.617c-0.027-0.031-0.048-0.055,0.006-0.161c0.177-0.347,0.901-0.82,2.152-0.714
		c0.552,0.054,1.035-0.359,1.083-0.909C46.044,31.557,45.637,31.071,45.087,31.023z"/>
	<path d="M23.086,35.013c-1.93-0.175-2.945,0.494-3.456,1.079c-0.61,0.699-0.831,1.67-0.606,2.665
		c0.382,1.688,0.284,2.932-0.283,3.594c-0.564,0.659-1.55,0.668-1.947,0.641c-0.421-0.028-0.722-0.178-0.947-0.471
		c-0.522-0.679-0.559-2.003-0.418-2.726c0.105-0.542-0.248-1.067-0.79-1.173c-0.546-0.109-1.068,0.247-1.173,0.79
		c-0.19,0.976-0.236,2.985,0.796,4.328c0.576,0.748,1.405,1.18,2.397,1.247C16.786,44.995,16.912,45,17.036,45
		c1.322,0,2.483-0.481,3.225-1.349c1.009-1.178,1.249-2.974,0.715-5.336c-0.049-0.215-0.092-0.617,0.162-0.909
		c0.291-0.334,0.92-0.478,1.776-0.401c0.55,0.051,1.035-0.359,1.083-0.909C24.044,35.545,23.637,35.061,23.086,35.013z"/>
	<path d="M29,0C13.009,0,0,13.01,0,29c0,7.491,2.837,14.574,8,19.992V52c0,1.654,1.346,3,3,3c0.246,0,0.482-0.038,0.711-0.094
		c0.068-0.017,0.132-0.041,0.198-0.062c0.164-0.053,0.321-0.117,0.472-0.197c0.06-0.031,0.119-0.06,0.176-0.095
		c0.188-0.115,0.364-0.245,0.522-0.397c0.006-0.006,0.013-0.01,0.018-0.015c0.171-0.167,0.316-0.357,0.443-0.561
		c0.007-0.011,0.018-0.02,0.025-0.031C18.188,56.465,23.496,58,29,58c15.991,0,29-13.01,29-29S44.991,0,29,0z M10,52v-3.82v-6.217
		l-0.167-0.252C7.325,37.938,6,33.543,6,29c0-6.613,2.771-12.766,7.659-17.131c0.436,1.637,1.372,3.019,3,3.129
		c1.175,0.085,2.456-0.496,3.318-1.505c0.854-0.997,1.718-2.855,1.024-6.058C23.564,6.482,26.251,6,29,6c12.682,0,23,10.317,23,23
		c0,10.045-6.425,18.85-15.988,21.908l-0.995,0.318l0.362,0.98c0.062,0.167,0.169,0.419,0.383,0.664
		c0.245,0.281,0.79,0.98,0.575,1.415c-0.205,0.413-1.059,0.755-1.752,0.71c-0.66-0.045-1.139-0.2-1.313-0.426
		c-0.143-0.187-0.161-0.546-0.054-1.097c0.044-0.226,0.07-0.45,0.078-0.669l0.042-1.187l-1.176,0.16C31.087,51.926,30.023,52,29,52
		c-5.666,0-11.111-2.082-15.333-5.861L12,44.646v5.437V52c0,0.552-0.449,1-1,1S10,52.552,10,52z M14,51.427v-2.43
		C18.313,52.236,23.563,54,29,54c0.704,0,1.424-0.032,2.152-0.096c-0.026,0.605,0.075,1.287,0.534,1.885
		c0.02,0.027,0.05,0.045,0.072,0.071C30.851,55.953,29.931,56,29,56C23.621,56,18.45,54.413,14,51.427z M38.367,54.322
		c0.052-0.517-0.039-1.173-0.491-1.947C47.574,48.705,54,39.474,54,29C54,15.215,42.785,4,29,4c-3.245,0-6.412,0.619-9.412,1.839
		l-0.552,0.225l-0.065,0.593c-0.042,0.386-0.024,0.757,0.054,1.102c0.558,2.467,0,3.773-0.566,4.436
		c-0.551,0.643-1.241,0.848-1.664,0.809c-0.911-0.062-1.357-1.923-1.424-3.081l-0.109-1.89l-1.5,1.155C7.558,13.965,4,21.187,4,29
		c0,4.836,1.382,9.519,4,13.563v3.399C4.115,41.17,2,35.237,2,29C2,14.112,14.112,2,29,2s27,12.112,27,27
		C56,40.596,48.651,50.506,38.367,54.322z"/>
	<path d="M32.735,40.823c-1.027-0.865-2.567-0.735-3.434,0.291l-0.726,0.86c-0.42,0.497-0.621,1.128-0.566,1.777
		c0.055,0.648,0.359,1.236,0.856,1.657l2.389,2.017C31.698,47.8,32.248,48,32.822,48c0.069,0,0.139-0.003,0.208-0.009
		c0.649-0.055,1.237-0.358,1.657-0.856l0.727-0.861c0.866-1.026,0.736-2.566-0.29-3.434L32.735,40.823z M33.886,44.984l-0.727,0.861
		c-0.102,0.12-0.229,0.147-0.297,0.152c-0.069,0.008-0.199,0-0.319-0.102l-2.389-2.016c-0.12-0.102-0.147-0.23-0.153-0.298
		c-0.005-0.067,0-0.198,0.102-0.318l0.727-0.86c0.155-0.186,0.432-0.208,0.616-0.052l2.389,2.016
		C34.018,44.523,34.042,44.8,33.886,44.984z"/>
	<path d="M35.147,17.106c0.11,0.642,0.463,1.202,0.996,1.578c0.416,0.294,0.902,0.447,1.4,0.447c0.138,0,0.278-0.012,0.417-0.036
		l3.082-0.527c0.642-0.109,1.202-0.462,1.578-0.993s0.522-1.178,0.413-1.819l-0.19-1.11c-0.11-0.642-0.463-1.202-0.994-1.578
		c-0.531-0.375-1.177-0.522-1.818-0.412l-3.082,0.527c-0.642,0.109-1.202,0.463-1.578,0.994s-0.522,1.178-0.413,1.818L35.147,17.106
		z M37.002,15.332c0.039-0.056,0.127-0.152,0.282-0.179l3.082-0.527c0.026-0.004,0.051-0.006,0.075-0.006
		c0.117,0,0.205,0.048,0.251,0.08c0.055,0.039,0.151,0.128,0.178,0.283l0.19,1.11c0.027,0.155-0.035,0.271-0.074,0.325
		c-0.039,0.056-0.127,0.151-0.283,0.179l-3.083,0.527c-0.156,0.022-0.27-0.035-0.325-0.074c-0.055-0.038-0.152-0.127-0.178-0.282
		l-0.19-1.111C36.902,15.502,36.963,15.387,37.002,15.332z"/>
	<path d="M28.833,24.608c-0.489,0.43-0.78,1.024-0.821,1.674l-0.071,1.125c-0.085,1.34,0.937,2.5,2.278,2.586l3.121,0.197
		c0.053,0.003,0.104,0.005,0.157,0.005c0.593,0,1.159-0.213,1.607-0.608c0.489-0.43,0.78-1.024,0.821-1.674l0.071-1.125
		c0.085-1.34-0.937-2.5-2.278-2.586l-3.12-0.197C29.95,23.976,29.321,24.178,28.833,24.608z M33.999,26.661l-0.071,1.126
		c-0.01,0.156-0.096,0.255-0.146,0.299c-0.051,0.044-0.161,0.118-0.317,0.108l-3.12-0.197c-0.241-0.016-0.424-0.223-0.409-0.463
		l0.071-1.126c0.01-0.156,0.096-0.255,0.146-0.299c0.051-0.045,0.16-0.125,0.317-0.108l3.119,0.197
		C33.831,26.214,34.014,26.421,33.999,26.661z"/>
	<path d="M11.898,26.151l3.049,0.692h0.001c0.18,0.04,0.36,0.06,0.537,0.06c1.113,0,2.121-0.768,2.377-1.897l0.53-2.338
		c0.144-0.635,0.033-1.287-0.314-1.838c-0.347-0.551-0.888-0.934-1.522-1.078l-3.049-0.691c-0.635-0.145-1.288-0.032-1.838,0.315
		c-0.551,0.347-0.934,0.888-1.077,1.521l-0.53,2.338c-0.145,0.635-0.033,1.288,0.315,1.84
		C10.723,25.626,11.264,26.008,11.898,26.151z M12.542,21.34c0.035-0.152,0.136-0.236,0.193-0.272
		c0.057-0.035,0.178-0.09,0.329-0.056l3.049,0.691c0.154,0.034,0.237,0.136,0.273,0.192c0.036,0.058,0.091,0.176,0.056,0.33
		l-0.53,2.338c-0.053,0.233-0.285,0.385-0.522,0.329l-3.05-0.692c-0.152-0.034-0.236-0.135-0.271-0.192
		c-0.036-0.057-0.091-0.176-0.057-0.329L12.542,21.34z"/>
</g>
<g>
</g>
<g>
</g>
<g>
</g>
<g>
</g>
<g>
</g>
<g>
</g>
<g>
</g>
<g>
</g>
<g>
</g>
<g>
</g>
<g>
</g>
<g>
</g>
<g>
</g>
<g>
</g>
<g>
</g>
</svg>
