<?xml version="1.0" encoding="iso-8859-1"?>
<!-- Generator: Adobe Illustrator 19.0.0, SVG Export Plug-In . SVG Version: 6.00 Build 0)  -->
<svg xmlns="http://www.w3.org/2000/svg" xmlns:xlink="http://www.w3.org/1999/xlink" version="1.1" id="Capa_1" x="0px" y="0px" viewBox="0 0 512.002 512.002" style="enable-background:new 0 0 512.002 512.002;" xml:space="preserve" width="512px" height="512px">
<g>
	<g>
		<path d="M511.959,288.152c-5.242-64.867-50.087-118.063-109.83-136.173c-14.645-33.768-37.958-63.192-67.651-85.244    C303.23,43.529,266.236,29.51,227.495,26.194c-4.111-0.347-7.759,2.706-8.112,6.833c-0.354,4.127,2.706,7.759,6.833,8.112    c67.928,5.814,126.97,46.136,157.332,106.436c-70.949-12.259-139.596,25.351-168.456,89.299c-37.312,0-73.434-1.36-109.734-4.714    c3.695-22.292,9.191-33.602,9.312-33.847c1.857-3.69,0.381-8.19-3.307-10.062c-3.69-1.874-8.206-0.398-10.082,3.295    c-0.289,0.57-6.755,13.539-10.88,39.125c-9.957-1.072-19.946-2.319-29.986-3.718c2.238-15.873,14.218-78.284,67.774-120.819    c3.244-2.576,3.785-7.294,1.209-10.539c-2.575-3.244-7.295-3.785-10.538-1.208c-34.902,27.719-53.113,62.909-62.244,87.548    c-7.176,19.364-10.017,35.241-11.062,42.828c-9.842-1.529-19.742-3.206-29.742-5.084c-0.496-0.093-0.851-0.567-0.807-1.08    c8.115-94.716,82.759-169.348,177.485-177.456c4.127-0.353,7.187-3.985,6.833-8.112c-0.354-4.127-3.979-7.181-8.112-6.833    C142.101,30.402,95.794,51.974,60.82,86.942c-34.974,34.967-56.552,81.271-60.76,130.38c-0.705,8.227,4.876,15.58,12.984,17.103    c50.651,9.512,104.114,15.178,159.374,16.921L148.543,403.12c-12.859,41.158,18.108,82.714,60.81,82.714    c35.129,0,63.708-28.58,63.708-63.708c0-6.46-0.975-12.852-2.897-19.006l-14.86-94.466c23.485,2.966,47.631,4.878,72.27,5.722    l-17.071,108.527c-1.438,4.65-2.166,9.475-2.166,14.351c0,26.788,21.793,48.581,48.581,48.581    c32.519,0,56.098-31.582,46.416-62.931l-2.16-13.732c-0.645-4.091-4.468-6.89-8.576-6.243c-4.092,0.644-6.887,4.483-6.243,8.576    c2.326,14.785,2.226,14.517,2.52,15.424c7.033,21.786-9.341,43.904-31.956,43.904c-22.613,0-38.986-22.119-31.956-43.903    c0.12-0.372,0.211-0.753,0.272-1.139l17.452-110.949c0,0,28.463,0,28.464,0l9.699,61.661c0.645,4.091,4.479,6.892,8.574,6.243    c4.092-0.644,6.888-4.482,6.244-8.574l-9.406-59.793c66.59-2.281,115.225-12.46,115.225-12.46    C507.992,300.687,512.494,294.77,511.959,288.152z M255.432,406.013c0.061,0.386,0.151,0.767,0.271,1.139    c1.563,4.84,2.355,9.879,2.355,14.975c0,26.857-21.85,48.707-48.707,48.707s-48.707-21.85-48.707-48.707    c0-8.973,2.39-14.601,2.627-16.113l24.246-154.138c11.796-0.001,21.642,0.054,21.696,0.054    c-5.472,16.549-7.354,33.351-7.325,36.779c0.054,6.506,4.666,12.121,11.18,13.343c8.387,1.575,18.507,3.259,26.714,4.474    L255.432,406.013z M474.555,291.268c-1.937-22.227-10.714-38.195-11.116-38.915c-2.019-3.617-6.588-4.911-10.206-2.892    c-3.616,2.019-4.911,6.588-2.893,10.206c0.083,0.149,7.831,14.235,9.342,33.697c-80.224,10.442-167.19,8.201-242.691-5.838    c7.321-77.839,79.575-137.526,160.267-125.737c62.936,9.31,113.497,61.079,119.587,125.737    C489.499,288.891,482.058,290.131,474.555,291.268z" fill="#707070"/>
	</g>
</g>
<g>
</g>
<g>
</g>
<g>
</g>
<g>
</g>
<g>
</g>
<g>
</g>
<g>
</g>
<g>
</g>
<g>
</g>
<g>
</g>
<g>
</g>
<g>
</g>
<g>
</g>
<g>
</g>
<g>
</g>
</svg>
