<?xml version="1.0" encoding="iso-8859-1"?>
<!-- Generator: Adobe Illustrator 19.0.0, SVG Export Plug-In . SVG Version: 6.00 Build 0)  -->
<svg version="1.1" id="Capa_1" xmlns="http://www.w3.org/2000/svg" xmlns:xlink="http://www.w3.org/1999/xlink" x="0px" y="0px"
	 viewBox="0 0 512 512" style="enable-background:new 0 0 512 512;" xml:space="preserve">
<g>
	<g>
		<path d="M256,308.893c-24.813,0-45,20.187-45,45s20.187,45,45,45s45-20.187,45-45S280.813,308.893,256,308.893z M256,368.893
			c-8.271,0-15-6.729-15-15s6.729-15,15-15s15,6.729,15,15S264.271,368.893,256,368.893z"/>
	</g>
</g>
<g>
	<g>
		<path d="M501.999,370.596L512,367.061V286.68L231.148,5.828c-25.181,5.345-60.588,5.704-106.041,29.084l-12.721,6.543
			C116.745,52.132,121,57.016,121,66.893c0,16.542-13.458,30-30,30c-6.637,0-12.922-2.12-18.176-6.13l-11.369-8.678l-9.209,10.943
			c-26.405,31.375-44.37,68.003-51.955,105.924L0,200.408V426.38l89.747,16.552l1.354-16.536
			c1.263-15.422,14.396-27.502,29.898-27.502c16.542,0,30,13.458,30,30c0,2.909-0.412,5.777-1.225,8.525l-4.929,16.665L512,506.172
			v-75.446l-10.001-3.535C490.321,423.063,482,411.953,482,398.893C482,386.196,490.037,374.824,501.999,370.596z M284.663,101.769
			l41.461,41.461c-5.454,8.309-14.883,13.663-25.124,13.663c-16.542,0-30-13.458-30-30C271,116.652,276.354,107.223,284.663,101.769
			z M67.437,122.104c7.372,3.156,15.335,4.789,23.563,4.789c33.084,0,60-26.916,60-60c0-3.61-0.314-7.169-0.939-10.659
			c32.234-14.194,56.51-15.332,70.791-18.276l42.298,42.298c-13.761,11.11-22.149,28-22.149,46.637c0,33.084,26.916,60,60,60
			c18.637,0,35.527-8.389,46.637-22.149l115.12,115.12l-282.482-53.667c0.474-3.033,0.725-6.139,0.725-9.303
			c0-33.084-26.916-60-60-60c-28.696,0-52.739,20.255-58.615,47.215l-31.254-5.76C37.505,171.48,49.914,145.434,67.437,122.104z
			 M151,216.893c0,16.542-13.458,30-30,30s-30-13.458-30-30s13.458-30,30-30S151,200.351,151,216.893z M332.241,450.369
			c3.683-12.401,15.178-21.476,28.759-21.476c16.479,0,29.893,13.356,29.995,29.811L332.241,450.369z M482,346.921
			c-18.296,10.579-30,30.312-30,51.972c0,21.647,11.612,41.365,30,51.978v20.744l-61.15-8.675c0.089-1.343,0.15-2.69,0.15-4.046
			c0-33.084-26.916-60-60-60c-28.705,0-52.753,20.267-58.621,47.239L181,428.912c0-0.007,0-0.013,0-0.019c0-33.084-26.916-60-60-60
			c-25.453,0-47.586,15.948-56.197,38.932L30,401.407V228.645l33.753,6.221c7.655,24.331,30.422,42.027,57.247,42.027
			c18.916,0,35.805-8.808,46.81-22.528L482,314.056V346.921z"/>
	</g>
</g>
<g>
</g>
<g>
</g>
<g>
</g>
<g>
</g>
<g>
</g>
<g>
</g>
<g>
</g>
<g>
</g>
<g>
</g>
<g>
</g>
<g>
</g>
<g>
</g>
<g>
</g>
<g>
</g>
<g>
</g>
</svg>
