<?xml version="1.0" encoding="iso-8859-1"?>
<!-- Generator: Adobe Illustrator 19.0.0, SVG Export Plug-In . SVG Version: 6.00 Build 0)  -->
<svg xmlns="http://www.w3.org/2000/svg" xmlns:xlink="http://www.w3.org/1999/xlink" version="1.1" id="Layer_1" x="0px" y="0px" viewBox="0 0 512.001 512.001" style="enable-background:new 0 0 512.001 512.001;" xml:space="preserve" width="512px" height="512px">
<g>
	<g>
		<g>
			<circle cx="202.881" cy="232.892" r="7.918" fill="#707070"/>
			<circle cx="208.304" cy="145.444" r="7.918" fill="#707070"/>
			<circle cx="41.467" cy="257.533" r="7.918" fill="#707070"/>
			<circle cx="180.243" cy="196.468" r="7.918" fill="#707070"/>
			<circle cx="296.17" cy="173.638" r="7.918" fill="#707070"/>
			<circle cx="259.239" cy="238.698" r="7.918" fill="#707070"/>
			<circle cx="234.989" cy="120.152" r="7.918" fill="#707070"/>
			<circle cx="255.656" cy="165.721" r="7.918" fill="#707070"/>
			<path d="M326.367,284.149h73.086c4.374,0,7.917-3.545,7.917-7.917c0-4.373-3.544-7.918-7.917-7.918h-73.086     c-4.374,0-7.918,3.545-7.918,7.918C318.449,280.604,321.994,284.149,326.367,284.149z" fill="#707070"/>
			<path d="M315.58,376.657h-73.085c-4.374,0-7.918,3.545-7.918,7.917c0,4.373,3.544,7.918,7.918,7.918h73.085     c4.374,0,7.918-3.545,7.918-7.918C323.497,380.202,319.953,376.657,315.58,376.657z" fill="#707070"/>
			<path d="M445.152,309.333h-49.083c-4.374,0-7.917,3.545-7.917,7.918c0,4.373,3.544,7.917,7.917,7.917h49.083     c4.374,0,7.918-3.545,7.918-7.917C453.069,312.878,449.524,309.333,445.152,309.333z" fill="#707070"/>
			<path d="M349.806,331.9h-25.063c-4.374,0-7.918,3.545-7.918,7.918c0,4.373,3.544,7.917,7.918,7.917h25.063     c4.374,0,7.918-3.545,7.918-7.917C357.723,335.444,354.179,331.9,349.806,331.9z" fill="#707070"/>
			<path d="M412.461,230.146h-90.297c7.815-14.203,12.269-30.506,12.269-47.83c0-54.885-44.654-99.539-99.539-99.539     c-42.17,0-78.295,26.361-92.772,63.469c-13.25-6.273-27.794-9.559-42.584-9.559C44.653,136.688,0,181.34,0,236.227     c0,50.408,37.667,92.18,86.333,98.661c2.715,52.477,46.263,94.337,99.403,94.337h226.726c54.885,0,99.539-44.653,99.539-99.539     C512,274.799,467.346,230.146,412.461,230.146z M234.894,98.613c46.155,0,83.704,37.549,83.704,83.704     c0,46.154-37.549,83.703-83.704,83.703c-46.154,0-83.703-37.549-83.703-83.703C151.191,136.162,188.74,98.613,234.894,98.613z      M15.835,236.227c0-46.154,37.549-83.704,83.703-83.704c13.257,0,26.276,3.133,37.986,9.103     c-1.418,6.677-2.169,13.598-2.169,20.691c0,5.669,0.484,11.226,1.398,16.638c-0.65-0.172-1.329-0.273-2.034-0.273     c-4.373,0-7.918,3.545-7.918,7.918s3.545,7.918,7.918,7.918c2.045,0,3.902-0.781,5.307-2.053     c6.756,21.215,20.446,39.362,38.395,51.773c-11.738,33.058-43.383,55.693-78.883,55.693     C53.384,319.93,15.835,282.381,15.835,236.227z M412.461,413.388H185.735c-44.126,0-80.362-34.33-83.462-77.681     c20.384-0.563,39.587-7.383,55.441-18.814h58.646c4.374,0,7.918-3.545,7.918-7.918c0-4.373-3.544-7.917-7.918-7.917h-41.358     c7.27-8.426,13.173-18.12,17.319-28.781c12.915,6.137,27.35,9.577,42.574,9.577c30.692,0,58.181-13.965,76.455-35.873h101.113     c46.155,0,83.704,37.549,83.704,83.703C496.165,375.839,458.616,413.388,412.461,413.388z" fill="#707070"/>
			<path d="M194.471,346.569h-25.064c-4.374,0-7.917,3.545-7.917,7.918c0,4.373,3.544,7.917,7.917,7.917h25.064     c4.374,0,7.918-3.545,7.918-7.917C202.389,350.114,198.844,346.569,194.471,346.569z" fill="#707070"/>
			<circle cx="83.697" cy="178.539" r="7.918" fill="#707070"/>
			<circle cx="47.273" cy="201.176" r="7.918" fill="#707070"/>
			<circle cx="106.526" cy="294.465" r="7.918" fill="#707070"/>
			<circle cx="114.443" cy="253.95" r="7.918" fill="#707070"/>
		</g>
	</g>
</g>
<g>
</g>
<g>
</g>
<g>
</g>
<g>
</g>
<g>
</g>
<g>
</g>
<g>
</g>
<g>
</g>
<g>
</g>
<g>
</g>
<g>
</g>
<g>
</g>
<g>
</g>
<g>
</g>
<g>
</g>
</svg>
