<?xml version="1.0" encoding="iso-8859-1"?>
<!-- Generator: Adobe Illustrator 19.0.0, SVG Export Plug-In . SVG Version: 6.00 Build 0)  -->
<svg version="1.1" id="Capa_1" xmlns="http://www.w3.org/2000/svg" xmlns:xlink="http://www.w3.org/1999/xlink" x="0px" y="0px"
	 viewBox="0 0 512 512" style="enable-background:new 0 0 512 512;" xml:space="preserve">
<path style="fill:#34ABE0;" d="M512,256c0,5.716-0.188,11.379-0.564,17c-0.585,9.017-1.641,17.909-3.145,26.645
	c-5.548,32.35-17.178,62.61-33.656,89.589c-44.951,73.623-126.056,122.764-218.633,122.764S82.32,462.857,37.368,389.234
	C13.66,350.427,0.003,304.807,0.003,256c0-1.567,0.01-3.124,0.042-4.681c0.157-9.007,0.784-17.899,1.86-26.645
	c4.545-37.25,17.084-72.035,35.871-102.567c12.1-19.686,26.791-37.616,43.603-53.289C127.114,26.124,188.502,0.002,256.002,0.002
	c129.065,0,235.822,95.514,253.438,219.709c1.254,8.746,2.048,17.638,2.382,26.645C511.937,249.553,512,252.771,512,256z"/>
<g>
	<path style="fill:#78CAEF;" d="M453.507,90.365L453.507,90.365c0-7.358-5.965-13.323-13.323-13.323h-4.441
		c-7.358,0-13.323-5.965-13.323-13.323l0,0c0-7.358-5.965-13.323-13.323-13.323H204.811c-7.358,0-13.323,5.965-13.323,13.323l0,0
		c0,7.358,5.965,13.323,13.323,13.323h82.159c7.358,0,13.323,5.965,13.323,13.323l0,0c0,7.358-5.965,13.323-13.323,13.323h-37.419
		c-7.358,0-13.323,5.965-13.323,13.323l0,0c0,7.358,5.965,13.323,13.323,13.323h11.304c7.358,0,13.323,5.965,13.323,13.323l0,0
		c0,7.358-5.965,13.323-13.323,13.323h-40.5c-7.358,0-13.323,5.965-13.323,13.323l0,0c0,7.358,5.965,13.323,13.323,13.323H412.23
		c7.358,0,13.323-5.965,13.323-13.323l0,0c0-7.358,5.965-13.323,13.323-13.323h1.309c7.358,0,13.323-5.965,13.323-13.323l0,0
		c0-7.358-5.965-13.323-13.323-13.323H415.76c-7.358,0-13.323-5.965-13.323-13.323l0,0c0-7.358,5.965-13.323,13.323-13.323h24.425
		C447.542,103.688,453.507,97.723,453.507,90.365z"/>
	<path style="fill:#78CAEF;" d="M181.271,264.641c0,7.356-5.966,13.322-13.322,13.322h-3.699c-3.678,0-7.011,1.494-9.414,3.897
		c-2.414,2.414-3.908,5.747-3.908,9.425c0,7.356-5.966,13.322-13.322,13.322H30.002c-3.688,0-7.011-1.494-9.425-3.897
		c-2.414-2.414-3.897-5.747-3.897-9.425c0-7.356,5.956-13.322,13.322-13.322h3.699c3.678,0,7.011-1.494,9.414-3.897
		c2.414-2.414,3.908-5.747,3.908-9.425c0-7.356-5.966-13.322-13.322-13.322H0.045c0.157-9.007,0.784-17.899,1.86-26.645h107.749
		c7.356,0,13.322,5.966,13.322,13.322c0,7.356,5.966,13.322,13.322,13.322h31.65c3.678,0,7.011,1.494,9.414,3.897
		C179.777,257.63,181.271,260.963,181.271,264.641z"/>
	<path style="fill:#78CAEF;" d="M481.698,273h29.738c-0.585,9.017-1.641,17.909-3.145,26.645h-89.505
		c-3.678,0-7.011-1.494-9.414-3.908c-2.414-2.403-3.908-5.736-3.908-9.414c0-7.356-5.966-13.322-13.322-13.322h-63.655
		c-3.678,0-7.011-1.494-9.414-3.908c-2.414-2.403-3.908-5.736-3.908-9.414c0-7.356,5.966-13.322,13.322-13.322h42.935
		c3.678,0,7.011-1.494,9.425-3.908c2.403-2.403,3.897-5.736,3.897-9.414c0-7.356,5.966-13.322,13.322-13.322H509.44
		c1.254,8.746,2.048,17.638,2.382,26.645h-30.124c-7.356,0-13.322,5.966-13.322,13.322C468.376,267.034,474.342,273,481.698,273z"/>
	<path style="fill:#78CAEF;" d="M147.009,108.785c0,7.356-5.966,13.322-13.322,13.322H37.776
		c12.1-19.686,26.791-37.616,43.603-53.289h25.663c7.356,0,13.322,5.966,13.322,13.322c0,3.678,1.494,7.011,3.897,9.425
		c2.414,2.403,5.747,3.897,9.425,3.897c3.678,0,7.011,1.494,9.425,3.897C145.515,101.774,147.009,105.107,147.009,108.785z"/>
</g>
<path style="fill:#F9EED7;" d="M474.635,165.157v224.077c-8.056,13.197-17.272,25.6-27.522,37.083
	c-34.356,38.536-80.195,66.612-132.158,78.858c-18.923,4.462-38.661,6.823-58.953,6.823c-10.919,0-21.671-0.679-32.235-2.006
	c-3.5-0.439-6.98-0.951-10.449-1.536c-52.642-8.829-99.829-33.729-136.358-69.485c-3.584-3.511-7.074-7.126-10.449-10.846
	c-10.898-11.985-20.668-24.994-29.142-38.891V165.157L474.635,165.157L474.635,165.157z"/>
<g>
	<path style="fill:#5C5E70;" d="M133.178,63.719c0-2.018,1.825-3.843,4.707-3.843h19.311c12.201,0,21.808,5.861,21.808,21.616v0.577
		c0,15.756-9.895,21.808-22.576,21.808h-10.76v22.289c0,2.594-3.17,3.938-6.244,3.938c-3.171,0-6.245-1.345-6.245-3.938V63.719z
		 M145.667,70.829v23.25h10.76c6.244,0,10.086-3.556,10.086-11.049v-1.154c0-7.493-3.842-11.048-10.086-11.048
		C156.428,70.829,145.667,70.829,145.667,70.829z"/>
	<path style="fill:#5C5E70;" d="M191.489,63.719c0-2.691,3.074-3.843,6.245-3.843c3.074,0,6.244,1.154,6.244,3.843v62.446
		c0,2.594-3.17,3.938-6.244,3.938c-3.171,0-6.245-1.345-6.245-3.938V63.719z"/>
	<path style="fill:#5C5E70;" d="M231.837,119.153h27.669c2.498,0,3.939,2.882,3.939,5.476s-1.441,5.476-3.939,5.476h-39.869
		c-2.594,0-3.747-1.441-3.747-3.459c0-1.25,0.481-2.882,1.344-4.324l28.534-51.493h-24.306c-2.497,0-3.842-2.594-3.842-5.476
		c0-2.691,1.154-5.476,3.842-5.476h36.509c2.497,0,3.746,1.441,3.746,3.362c0,1.345-0.481,2.882-1.441,4.515L231.837,119.153z"/>
	<path style="fill:#5C5E70;" d="M286.786,119.153h27.669c2.498,0,3.939,2.882,3.939,5.476s-1.441,5.476-3.939,5.476h-39.869
		c-2.594,0-3.747-1.441-3.747-3.459c0-1.25,0.481-2.882,1.344-4.324l28.534-51.493H276.41c-2.497,0-3.842-2.594-3.842-5.476
		c0-2.691,1.154-5.476,3.842-5.476h36.509c2.497,0,3.746,1.441,3.746,3.362c0,1.345-0.481,2.882-1.441,4.515L286.786,119.153z"/>
	<path style="fill:#5C5E70;" d="M325.308,124.916c0-0.191,0.095-0.577,0.191-0.96l18.543-60.429c0.865-2.882,4.42-4.228,7.975-4.228
		c3.65,0,7.205,1.346,8.07,4.228l18.542,60.429c0.097,0.385,0.192,0.673,0.192,0.96c0,2.979-4.515,5.188-7.877,5.188
		c-2.114,0-3.747-0.672-4.228-2.497l-3.652-12.777h-22l-3.65,12.777c-0.481,1.825-2.114,2.497-4.228,2.497
		C329.823,130.104,325.308,127.99,325.308,124.916z M360.374,105.03l-8.358-29.493l-8.359,29.493H360.374z"/>
</g>
<path style="fill:#D6C8B0;" d="M223.767,229.94v280.052c-3.5-0.439-6.98-0.951-10.449-1.536
	c-52.642-8.829-99.829-33.729-136.358-69.485c-3.584-3.511-7.074-7.126-10.449-10.846V229.94L223.767,229.94L223.767,229.94z"/>
<path style="fill:#5C5E70;" d="M213.318,240.389v268.067c-4.148-0.7-8.265-1.494-12.351-2.382
	c-6.844-1.505-13.573-3.271-20.198-5.308c-39.539-12.131-74.992-33.583-103.81-61.795V240.389H213.318z"/>
<rect x="232.645" y="229.938" style="fill:#D6C8B0;" width="219.939" height="179.188"/>
<rect x="243.094" y="240.387" style="fill:#5C5E70;" width="199.041" height="158.291"/>
<rect x="37.368" y="171.435" style="fill:#E8DBC4;" width="437.266" height="31.346"/>
<path style="fill:#C69A6A;" d="M477.218,27.243h-87.17c-7.522,0-13.62-6.098-13.62-13.62l0,0c0-7.522,6.098-13.62,13.62-13.62h87.17
	c7.522,0,13.62,6.098,13.62,13.62l0,0C490.838,21.145,484.74,27.243,477.218,27.243z"/>
<polygon style="fill:#FFD15C;" points="476.73,27.242 469.823,46.343 469.823,46.353 459.385,75.192 459.385,75.202 433.638,146.36 
	421.309,112.296 410.264,81.764 390.537,27.242 "/>
<g>
	<path style="fill:#FF525D;" d="M469.823,46.343v0.01l-10.438,28.839v0.01c-2.706,1.243-5.726,1.933-8.913,1.933
		c-11.86,0-21.473-9.613-21.473-21.473s9.613-21.473,21.473-21.473C458.987,34.19,466.354,39.154,469.823,46.343z"/>
	<path style="fill:#FF525D;" d="M433.638,96.476c0,7.638-5.245,14.043-12.33,15.82l-11.044-30.532
		c2.142-1.024,4.535-1.599,7.063-1.599C426.335,80.166,433.638,87.469,433.638,96.476z"/>
</g>
<path style="fill:#C69A6A;" d="M121.955,27.243H34.785c-7.522,0-13.62-6.098-13.62-13.62l0,0c0-7.522,6.098-13.62,13.62-13.62h87.17
	c7.522,0,13.62,6.098,13.62,13.62l0,0C135.575,21.145,129.477,27.243,121.955,27.243z"/>
<polygon style="fill:#FFD15C;" points="121.467,27.242 114.56,46.343 114.56,46.353 104.121,75.192 104.121,75.202 78.375,146.36 
	66.046,112.296 55.001,81.764 35.273,27.242 "/>
<g>
	<path style="fill:#FF525D;" d="M114.56,46.343v0.01l-10.438,28.839v0.01c-2.706,1.243-5.726,1.933-8.913,1.933
		c-11.86,0-21.473-9.613-21.473-21.473S83.349,34.19,95.208,34.19C103.724,34.19,111.091,39.154,114.56,46.343z"/>
	<path style="fill:#FF525D;" d="M78.375,96.476c0,7.638-5.245,14.043-12.33,15.82L55.001,81.764
		c2.142-1.024,4.535-1.599,7.063-1.599C71.071,80.166,78.375,87.469,78.375,96.476z"/>
	<path style="fill:#FF525D;" d="M502.661,179.266H9.336C4.18,179.266,0,175.086,0,169.93v-14.24c0-5.157,4.181-9.336,9.336-9.336
		H502.66c5.157,0,9.336,4.181,9.336,9.336v14.24C511.997,175.087,507.816,179.266,502.661,179.266z"/>
</g>
<rect x="70.708" y="397.696" style="fill:#D6C8B0;" width="148.375" height="16.021"/>
<g>
	<path style="fill:#797B89;" d="M194.687,340.569h-7.635c-3.47,0-6.283-2.813-6.283-6.283v-70.329c0-3.47,2.813-6.283,6.283-6.283
		h7.635c3.47,0,6.283,2.813,6.283,6.283v70.329C200.971,337.757,198.157,340.569,194.687,340.569z"/>
	<path style="fill:#797B89;" d="M422.474,340.569h-7.635c-3.47,0-6.283-2.813-6.283-6.283v-70.329c0-3.47,2.813-6.283,6.283-6.283
		h7.635c3.47,0,6.283,2.813,6.283,6.283v70.329C428.758,337.757,425.944,340.569,422.474,340.569z"/>
	<path style="fill:#797B89;" d="M200.967,442.283v63.791c-6.844-1.505-13.573-3.271-20.198-5.308v-58.483
		c0-3.469,2.811-6.28,6.28-6.28h7.638C198.156,436.004,200.967,438.814,200.967,442.283z"/>
</g>
<path style="fill:#FCF8F2;" d="M447.112,426.317c-34.356,38.536-80.195,66.612-132.158,78.858c-1.567-0.669-2.978-1.64-4.159-2.821
	c-2.403-2.403-3.897-5.736-3.897-9.414c0-7.366,5.966-13.322,13.322-13.322h37.418c3.678,0,7.011-1.494,9.414-3.908
	c2.414-2.403,3.908-5.736,3.908-9.414c0-7.366-5.966-13.333-13.322-13.333h-82.16c-3.678,0-7.011-1.494-9.425-3.897
	c-2.403-2.414-3.897-5.747-3.897-9.425c0-7.356,5.966-13.322,13.322-13.322L447.112,426.317L447.112,426.317z"/>
<g>
</g>
<g>
</g>
<g>
</g>
<g>
</g>
<g>
</g>
<g>
</g>
<g>
</g>
<g>
</g>
<g>
</g>
<g>
</g>
<g>
</g>
<g>
</g>
<g>
</g>
<g>
</g>
<g>
</g>
</svg>
